<svg width="22" height="14" viewBox="0 0 22 14" fill="none" xmlns="http://www.w3.org/2000/svg">
<path d="M2.5868 8.77881C4.36623 10.5478 7.46953 12.9999 11.0002 12.9999C14.5308 12.9999 17.6335 10.5478 19.413 8.77881C19.8823 8.31226 20.1177 8.07819 20.2671 7.62012C20.3738 7.29328 20.3738 6.70674 20.2671 6.3799C20.1177 5.92181 19.8823 5.6877 19.413 5.22111C17.6335 3.45208 14.5308 1 11.0002 1C7.46953 1 4.36623 3.45208 2.5868 5.22111C2.11714 5.68802 1.88229 5.92165 1.7328 6.3799C1.62618 6.70673 1.62618 7.29328 1.7328 7.62012C1.88229 8.07837 2.11714 8.31189 2.5868 8.77881Z" stroke="#BC933A" stroke-width="2" stroke-linecap="round" stroke-linejoin="round"/>
<path d="M9 7C9 8.10457 9.89543 9 11 9C12.1046 9 13 8.10457 13 7C13 5.89543 12.1046 5 11 5C9.89543 5 9 5.89543 9 7Z" stroke="#BC933A" stroke-width="2" stroke-linecap="round" stroke-linejoin="round"/>
</svg>
