<svg width="23" height="23" viewBox="0 0 23 23" fill="none" xmlns="http://www.w3.org/2000/svg">
<path d="M17.3687 19.7488C15.9268 18.1384 13.8317 17.125 11.5 17.125C9.16826 17.125 7.07304 18.1384 5.6311 19.7488M11.5 21.625C5.90812 21.625 1.375 17.0919 1.375 11.5C1.375 5.90812 5.90812 1.375 11.5 1.375C17.0919 1.375 21.625 5.90812 21.625 11.5C21.625 17.0919 17.0919 21.625 11.5 21.625ZM11.5 13.75C9.63604 13.75 8.125 12.239 8.125 10.375C8.125 8.51104 9.63604 7 11.5 7C13.364 7 14.875 8.51104 14.875 10.375C14.875 12.239 13.364 13.75 11.5 13.75Z" stroke="#BC933A" stroke-width="2" stroke-linecap="round" stroke-linejoin="round"/>
</svg>
