<svg width="12" height="12" viewBox="0 0 12 12" fill="none" xmlns="http://www.w3.org/2000/svg">
<path d="M3.67695 3.5H3.50907C2.94975 3.5 2.67022 3.5 2.4434 3.6095C2.24346 3.70603 2.07312 3.86149 1.95178 4.05786C1.81412 4.28064 1.76784 4.57741 1.67589 5.17114L1.13385 8.67114L1.13363 8.67244C1.00967 9.47283 0.947662 9.87324 1.05536 10.1853C1.14992 10.4593 1.33101 10.6889 1.56658 10.8343C1.83503 11 2.21213 11 2.96688 11H9.03296C9.78771 11 10.1654 11 10.4339 10.8343C10.6694 10.6889 10.8501 10.4593 10.9447 10.1853C11.0523 9.87337 10.9903 9.47314 10.8665 8.67337L10.866 8.67114L10.3239 5.17114C10.232 4.57742 10.186 4.28064 10.0483 4.05786C9.92696 3.86149 9.7565 3.70603 9.55655 3.6095C9.32973 3.5 9.05038 3.5 8.49106 3.5H8.32304M3.67695 3.5H8.32304M3.67695 3.5C3.67695 2.11929 4.71701 1 5.99999 1C7.28297 1 8.32304 2.11929 8.32304 3.5" stroke="#BC933A" stroke-linecap="round" stroke-linejoin="round"/>
</svg>
