<svg width="20" height="20" viewBox="0 0 20 20" fill="none" xmlns="http://www.w3.org/2000/svg">
<path d="M5.8185 5.5H5.51633C4.50956 5.5 4.00639 5.5 3.59811 5.69711C3.23822 5.87086 2.93162 6.15068 2.7132 6.50415C2.46542 6.90514 2.38212 7.43934 2.2166 8.50806L1.24093 14.8081L1.24053 14.8104C1.01741 16.2511 0.905791 16.9718 1.09965 17.5335C1.26986 18.0267 1.59581 18.44 2.01985 18.7017C2.50305 19 3.18183 19 4.54038 19H15.4593C16.8179 19 17.4978 19 17.981 18.7017C18.405 18.44 18.7302 18.0267 18.9004 17.5335C19.0942 16.9721 18.9826 16.2517 18.7596 14.8121L18.7588 14.8081L17.7831 8.50806C17.6176 7.43935 17.5347 6.90514 17.287 6.50415C17.0685 6.15068 16.7617 5.87086 16.4018 5.69711C15.9935 5.5 15.4907 5.5 14.4839 5.5H14.1815M5.8185 5.5H14.1815M5.8185 5.5C5.8185 3.01472 7.69062 1 9.99999 1C12.3094 1 14.1815 3.01472 14.1815 5.5" stroke="#BC933A" stroke-width="2" stroke-linecap="round" stroke-linejoin="round"/>
</svg>
